<mxfile host="app.diagrams.net" modified="2022-04-15T04:48:57.161Z" agent="5.0 (Windows NT 10.0; Win64; x64) AppleWebKit/537.36 (KHTML, like Gecko) Chrome/100.0.4896.88 Safari/537.36" etag="5lg2iP7w1CxTfGA4UEPf" version="16.6.6" type="github">
  <diagram id="tjbmi51JdFCyrffwO4of" name="第 1 页">
    <mxGraphModel dx="782" dy="513" grid="1" gridSize="10" guides="1" tooltips="1" connect="1" arrows="1" fold="1" page="1" pageScale="1" pageWidth="827" pageHeight="1169" math="0" shadow="0">
      <root>
        <mxCell id="0" />
        <mxCell id="1" parent="0" />
        <mxCell id="bwPUzuxzpHphDjNmduQd-1" value="A" style="rounded=1;whiteSpace=wrap;html=1;strokeWidth=2;fillWeight=4;hachureGap=8;hachureAngle=45;fillColor=#A9C4EB;sketch=1;fillStyle=hachure;shadow=0;glass=0;fontFamily=Comic Sans MS;" vertex="1" parent="1">
          <mxGeometry x="50" y="180" width="90" height="40" as="geometry" />
        </mxCell>
        <mxCell id="bwPUzuxzpHphDjNmduQd-4" value="" style="rhombus;whiteSpace=wrap;html=1;strokeWidth=2;fillWeight=-1;hachureGap=8;fillStyle=cross-hatch;fillColor=#006600;sketch=1;" vertex="1" parent="1">
          <mxGeometry x="550" y="190" width="120" height="60" as="geometry" />
        </mxCell>
        <mxCell id="bwPUzuxzpHphDjNmduQd-5" value="" style="shape=ext;double=1;rounded=1;whiteSpace=wrap;html=1;shadow=1;glass=0;sketch=1;fillStyle=hachure;fillColor=#A9C4EB;" vertex="1" parent="1">
          <mxGeometry x="280" y="40" width="120" height="80" as="geometry" />
        </mxCell>
        <mxCell id="bwPUzuxzpHphDjNmduQd-6" value="" style="rounded=0;whiteSpace=wrap;html=1;shadow=1;glass=0;sketch=1;fillStyle=hachure;fontFamily=Comic Sans MS;fillColor=#A9C4EB;" vertex="1" parent="1">
          <mxGeometry x="490" y="70" width="120" height="60" as="geometry" />
        </mxCell>
        <mxCell id="bwPUzuxzpHphDjNmduQd-7" value="" style="rounded=0;whiteSpace=wrap;html=1;shadow=0;glass=0;sketch=1;fillStyle=hachure;fontFamily=Helvetica;fillColor=#A9C4EB;strokeColor=#FFCCCC;" vertex="1" parent="1">
          <mxGeometry x="300" y="280" width="120" height="60" as="geometry" />
        </mxCell>
        <mxCell id="bwPUzuxzpHphDjNmduQd-8" value="" style="ellipse;whiteSpace=wrap;html=1;rounded=1;shadow=0;glass=0;sketch=1;fillStyle=hachure;fontFamily=Helvetica;strokeColor=#FFCCCC;fillColor=#A9C4EB;" vertex="1" parent="1">
          <mxGeometry x="120" y="270" width="120" height="80" as="geometry" />
        </mxCell>
      </root>
    </mxGraphModel>
  </diagram>
</mxfile>
